<svg id="Layer_1" data-name="Layer 1" xmlns="http://www.w3.org/2000/svg" viewBox="0 0 2716.64 2249.2"><defs><style>.cls-1,.cls-4{fill:#b44894;}.cls-2,.cls-3{fill:#f6a122;}.cls-3,.cls-4{font-size:500px;font-family:Bauhaus93, "Bauhaus 93";}</style></defs><path class="cls-1" d="M1828.48,1376.28c0,60.24,0,116.61,0,173,0,13.51-11,20.11-18.78,28.82-144.12,162-178.37,347.11-92.06,543.49,85.84,195.33,245.52,295.68,460.59,298.07,122.94,1.36,232.23-41.8,324.27-123.94,18.21-16.26,28.76-17.61,44.89,1a545.85,545.85,0,0,0,60.47,59.94c19.62,16.51,17.8,26.88-.92,43.18-158.27,137.8-341.16,190.37-547.66,155.65-253-42.54-461-242.93-516-493-56.76-258,45.76-523,259.56-670.74C1809.49,1387.07,1816.76,1383.28,1828.48,1376.28Z" transform="translate(-715.24 -912.32)"/><path class="cls-2" d="M1860.17,1812.87c-.05-140.84.87-281.69-.82-422.51-.34-28.41,8.79-44.07,34.29-53.44,27.75-10.2,55.23-21.19,82.43-32.75,23.79-10.12,30.12-2.53,29.9,22.2-1,113.61-.46,227.24-.46,340.86,0,165.69.51,331.39-.53,497.08-.14,23.52,6.84,36.75,28.36,46.43,121.48,54.62,235.58,43.32,340.44-38.84,20.31-15.91,31.81-18.48,48.47,1.91,13.41,16.42,29.94,30.3,45.11,45.28,36.79,36.3,36.8,36.3-2.29,67.74-168.61,135.61-405,136.92-576.19,4.13-20.4-15.82-29.67-32.17-29.37-59.12C1861,2092.2,1860.22,1952.53,1860.17,1812.87Z" transform="translate(-715.24 -912.32)"/><path class="cls-1" d="M2189.53,1273.07c153.63,3.18,299.12,59,422.67,171.6,16.5,15,17.31,23.32.59,37.79-22.32,19.3-43.24,40.4-63.24,62.13-14.3,15.55-23.55,19.3-42.37,2.79-127.66-111.92-275.55-151-442-115.2-21.84,4.69-29.86,2.17-28.64-21.83,1.68-33,1.36-66.18,0-99.22-.74-18.1,6.36-25,23.46-27.74A793.32,793.32,0,0,1,2189.53,1273.07Z" transform="translate(-715.24 -912.32)"/><path class="cls-1" d="M2463.91,913.06c-27.8,32.21-55.36,69-87.88,100.77-60.44,59-110,118.24-28.31,213-338.25-42.19-600.27,62.84-807,331.32-35.14-180.9-176-108.93-277.68-131-23.7-5.14-35.3,10.84-35.43,33.75-.69,124.71-5.29,249.63,14.14,377.92-31.25.87-67.31,30-50.14-49.88,20.6-95.8,11.11-198.49,10.46-298.17-.29-44.2,11.41-76.4,44.78-107.36,153-142,303.76-286.44,454.72-430.63,24.53-23.43,48.27-40.7,85.61-40.45C2009.81,913.82,2232.41,913.06,2463.91,913.06Z" transform="translate(-715.24 -912.32)"/><path class="cls-1" d="M2670.91,1712.83c-11.4,1.74-22.59,2.82-33.71,4.49-47.73,7.18-92.85,22.3-135.62,44.51-67.29,35-123.71,83.41-173.57,140-42.75,48.49-79.29,101.35-111.2,157.5q-27,47.58-49.65,97.41c4-11.12,8.07-22.2,11.88-33.38,33-97.06,53.54-196.45,54.42-299.31.58-68.46-8.52-135.49-32.23-200.13A431.32,431.32,0,0,0,2128,1496.22c-2.59-3.13-6.46-5.11-8.46-9.64,5.78,1.85,9.61,5.93,13.65,9.05,12.09,9.36,23.53,19.56,35,29.69a570.1,570.1,0,0,1,50.2,50.54c10.51,11.91,20.27,24.42,29.76,37.13,11.94,16,22.05,33.13,31.62,50.63,7,12.8,11.6,26.76,18.93,39.38,20.85,35.9,64.72,51.51,102.95,35.47,14.49-6.08,29.24-11.22,44.09-16,12.39-4,25.44-6.18,38.33-8.47a557.12,557.12,0,0,1,86.24-8c32.95-.69,65.59,2.19,98.2,6.17A14.7,14.7,0,0,1,2670.91,1712.83Z" transform="translate(-715.24 -912.32)"/><path class="cls-2" d="M2212.36,2167.73c11.83-21.71,24.68-42.5,37.81-63.12a1417.73,1417.73,0,0,1,92.15-129.13c29.82-37,61.71-72,97.5-103.38,35-30.65,72.54-57.47,116.37-74.41,23.89-9.23,48.52-14,74.23-12.48a4.72,4.72,0,0,1,3.23,1.75c-51.82,7.29-89.2,36.39-117.6,78.84a98.36,98.36,0,0,0-15.61,39.13c-4.77,29.34,7.29,53.37,34.86,69.63,12.72,7.49,26.82,11.79,40.34,17.38a617.93,617.93,0,0,1,63.4,30.44c9.1,5,18.44,9.88,27.29,15.23,9.79,5.93,19.18,12.78,28.83,19.06,7.84,5.1,15.25,10.82,22.83,16.21s14.36,11.68,21.49,17.6c10.6,8.82,20.75,18.1,30.75,27.58a1.68,1.68,0,0,1-2.53.5c-20.61-12.64-42.9-21.68-65.65-29.33-10.49-3.53-21.06-7.14-31.87-10-10.52-2.78-21.23-4.88-31.66-8.13-6-1.86-12.57-1.67-18.7-3.17-10.52-2.58-21.28-3.42-31.94-4.59-13-1.43-26.08-2.07-39.17-2.33-13.27-.27-26.51,0-39.75.8-12.63.8-25.21,1.89-37.77,3.72-8.57,1.24-17.14,2.44-25.67,4-19.06,3.54-37.84,8-56.49,13.43a578.77,578.77,0,0,0-63.79,22.42c-39.1,16.45-76.32,36.38-110.9,61.06C2213.7,2166.92,2213,2167.31,2212.36,2167.73Z" transform="translate(-715.24 -912.32)"/><path class="cls-1" d="M2352,1707.1c-25.55-10.84-38.41-38.6-31.71-61.94,11-38.5,47.9-46.3,72.09-35.83,26.77,11.6,39.9,42,28.56,69C2409.47,1705.59,2379.51,1718.13,2352,1707.1Z" transform="translate(-715.24 -912.32)"/><path class="cls-2" d="M2645.72,1931.71c-11.71,27.61-40.84,40.08-69,29.15-26.71-10.35-39.91-42.09-29.09-68.85,11.07-27.39,42-40.2,69.5-29C2642.56,1873.38,2657.47,1904.11,2645.72,1931.71Z" transform="translate(-715.24 -912.32)"/><text class="cls-3" transform="translate(0 2124.2)">Labib</text><text class="cls-4" transform="translate(1284.76 2124.2)">center</text></svg>